<?xml version="1.0" encoding="UTF-8"?>
<svg width="200px" height="80px" viewBox="0 0 200 80" version="1.1" xmlns="http://www.w3.org/2000/svg" xmlns:xlink="http://www.w3.org/1999/xlink">
    <!-- Generator: Sketch 39.1 (31720) - http://www.bohemiancoding.com/sketch -->
    <title>Group Copy</title>
    <desc>Created with Sketch.</desc>
    <defs></defs>
    <g id="Page-1" stroke="none" stroke-width="1" fill="none" fill-rule="evenodd">
        <g id="Group-Copy">
            <rect id="rect" fill="#000000" x="0" y="0" width="200" height="80"></rect>
            <path d="M58.432,40.664 L71.232,40.664 L71.232,40.024 L58.432,40.024 L58.432,40.664 Z M85.7419199,40.9703999 C85.5699199,43.592 83.69728,44.7496001 81.3118401,44.728 C78.7678401,44.70496 77.1833601,42.9665601 77.1833601,40.1998401 C77.1833601,37.38176 78.76528,35.6545601 81.29904,35.6545601 C83.28304,35.6545601 84.7763201,36.4432 85.2665601,38.40352 L85.4072,38.40352 L85.0535999,36.1436799 C84.0662397,35.5432 82.6393599,35.1752 81.3062397,35.1752 C78.0670398,35.1752 76.0265598,37.0843201 76.0265598,40.1992 C76.0265598,43.2993599 78.0647998,45.2072 81.3062397,45.2232 C83.1974397,45.2232 84.8814397,44.4392 85.7127998,43.1601599 L85.8823999,40.96896 L85.7419199,40.9703999 Z M87.392,35.4 L87.3948799,35.56 L87.6108799,35.56 C88.1198398,35.56 88.5035198,35.9183999 88.5198398,36.3926399 L88.5198398,43.9948799 C88.4990398,44.4652798 88.1169597,44.8406399 87.6110398,44.8406399 L87.3950398,44.8406399 L87.3921599,45.0006399 L90.6643198,45.0006399 L90.6614399,44.8406399 L90.44496,44.8406399 C89.93024,44.8406399 89.5459199,44.45376 89.536,43.97328 L89.536,35.89824 C89.6881599,35.90672 90.4766399,35.8668799 91.3758398,35.9123198 C92.6632,35.9774399 93.4700798,36.6815999 93.5038398,37.8803198 C93.5137598,38.2310398 93.4684797,38.5681599 93.3919998,38.79248 C92.9331199,40.1374399 91.92496,40.1460798 91.04,40.1684797 C90.5168,40.1817598 90.1219202,40.1750398 90.1224001,40.1750398 L90.1224001,40.3230398 C90.7555203,40.3230398 91.3105603,40.8575999 91.7438403,41.4004797 C91.8691204,41.5574397 93.1307205,43.3748796 93.3116804,43.5924797 C93.8136003,44.1955198 94.5121604,45.0004797 96.2822405,45.0004797 L96.7862405,45.0004797 L96.7862405,44.8399998 C95.8988804,44.8324797 95.4508804,44.3545598 94.7996804,43.6244797 C94.1380803,42.8828796 93.3971204,41.8799998 93.3996804,41.8799998 C93.0568005,41.3940798 92.5161606,40.7844797 92.1670405,40.6260798 C93.6030405,40.4820798 94.6548806,39.3483198 94.6548806,37.9913599 C94.6548806,36.3750398 93.4190405,35.4003198 91.4019204,35.4003198 L87.392,35.4 Z M101.92544,35.176 L101.77376,35.176 C101.7408,35.5945601 101.15328,36.824 101.15792,36.824 L97.84528,43.916 C97.5171201,44.568 97.0166401,44.8401599 96.5908801,44.8401599 L96.4640002,44.8401599 L96.4640002,45.0001599 L99.5126401,45.0001599 L99.5126401,44.8415999 L99.3854402,44.8415999 C99.0120002,44.8415999 98.5913604,44.4774399 98.8358403,43.8371199 L99.7166404,41.7519998 L103.76416,41.7519998 L104.63824,43.8811199 C104.847841,44.4940798 104.437601,44.8414399 104.072801,44.8414399 L103.945601,44.8414399 L103.945601,45 L107.232321,45 L107.232321,44.84 L107.111361,44.84 C106.684,44.84 106.202561,44.5656001 105.876321,43.90752 L101.92544,35.176 Z M99.9195205,41.2721599 L101.769601,36.8935999 L103.567201,41.2721599 L99.9195205,41.2721599 Z M110.21408,35.4 L108.032,35.4 L108.03504,35.56 L108.2576,35.56 C108.78416,35.56 109.17888,35.92096 109.19328,36.3975999 L109.19328,43.9913599 C109.17344,44.4633599 108.78064,44.8406399 108.25792,44.8406399 L108.03536,44.8406399 L108.03248,45.0006399 L111.37472,45.0006399 L111.37184,44.8406399 L111.14928,44.8406399 C110.62288,44.8406399 110.22704,44.45696 110.21424,43.9793599 L110.21424,40.4403198 L113.02688,40.4403198 C113.44688,40.4652798 113.63984,40.7590398 113.63984,41.1183999 L113.63984,41.3215999 L113.81632,41.3233599 L113.81632,39.0759998 L113.63984,39.0777598 L113.63984,39.2809597 C113.63984,39.6507197 113.43536,39.9510398 112.98928,39.9603198 L110.21408,39.9603198 L110.21408,35.8897598 L113.58304,35.8897598 C114.06992,35.8993599 114.38656,36.2635198 114.38656,36.7121597 L114.38656,36.9580796 L114.56304,36.9601597 L114.56304,35.1495996 C114.280959,35.2579197 113.404639,35.3959998 112.752799,35.4004797 L110.21408,35.4 Z M117.54064,35.38352 C116.91152,35.38352 116.03744,35.2425601 115.75984,35.13248 L115.75984,36.93424 L115.930719,36.9321599 L115.930719,36.68624 C115.930719,36.23696 116.244959,35.8723201 116.730719,35.8638401 L119.628159,35.8638401 L119.628159,43.9729602 C119.618559,44.4534402 119.202079,44.8403201 118.689119,44.8403201 L118.503519,44.8403201 L118.501119,45.0003201 L121.798399,45.0003201 L121.796,44.8403201 L121.610399,44.8403201 C121.104479,44.8403201 120.692959,44.464 120.67232,43.9926399 L120.67232,35.8636799 L123.56768,35.8636799 C124.05344,35.8723198 124.36768,36.2369597 124.36816,36.6862397 L124.36816,36.9321597 L124.53856,36.9342397 L124.53856,35.1324797 C124.260959,35.2425598 123.386879,35.3835198 122.751359,35.3835198 L117.54064,35.38352 Z M128.768,40.664 L141.568,40.664 L141.568,40.024 L128.768,40.024 L128.768,40.664 Z" id="—-craft-—" fill="#FFFFFF"></path>
            <path d="M40.82,12.6 L40.8235201,12.8186801 L41.1018199,12.8186801 C41.8718199,12.8186801 42.4966198,13.4357801 42.5111399,14.2020402 L42.5111399,26.4078601 C42.4917798,27.1692801 41.8691797,27.78066 41.1026998,27.78066 L40.8243999,27.78066 L40.8208799,28.00066 L45.627,28.00066 L45.6234799,27.78066 L45.3451801,27.78066 C44.5751801,27.78066 43.9503802,27.1635599 43.9360803,26.3972999 L43.9360803,13.28508 C44.2216402,13.29542 45.5533002,13.2408601 46.6748601,13.30224 C48.31276,13.392 49.34984,14.6664598 49.4039602,16.6561399 C49.4171603,17.1383799 49.3610602,17.6652798 49.2640402,17.9734997 C48.6396801,19.9548196 46.97142,20.2267396 45.8302801,20.2577597 C45.16808,20.2757999 44.6677999,20.2650197 44.6677999,20.2650197 L44.6677999,20.4685197 C45.4714598,20.4685197 46.1131998,21.2305997 46.6882798,21.9530797 C46.8572396,22.1653795 49.3364197,25.7724997 49.5863397,26.0710398 C50.2780197,26.8969197 51.3773598,27.9997798 53.4246797,27.9997798 L54.6315997,27.9997798 L54.6315997,27.7791198 C53.3388799,27.7687798 52.52466,27.0821596 51.6396001,26.1154796 C50.7879799,25.1853196 48.8913598,22.4771195 48.8913598,22.4771195 C48.4649997,21.8749796 47.7887195,21.1467794 47.3168196,20.9289796 C49.4325596,20.9289796 51.0541797,18.8640596 51.0541797,16.7342396 C51.0541797,14.1707995 49.4202396,12.5995596 46.7542798,12.5995596 L40.82,12.6 Z M60.9134799,14.492 L60.70492,14.492 C60.6596001,15.0675201 59.85176,16.758 59.8581399,16.758 L55.30326,26.5095 C54.8520402,27.406 54.1638802,27.7802199 53.5784602,27.7802199 L53.4040003,27.7802199 L53.4040003,28.0002199 L57.5958802,28.0002199 L57.5958802,27.7821998 L57.4209803,27.7821998 C56.9075003,27.7821998 56.3291205,27.2814799 56.6652805,26.4010398 L57.8763805,23.5339997 L63.4417206,23.5339997 L64.6435807,26.4615398 C64.9317808,27.3043598 64.3677008,27.7819799 63.8661007,27.7819799 L63.6912008,27.7819799 L63.6912008,28 L68.2104408,28 L68.2104408,27.78 L68.0441208,27.78 C67.4565007,27.78 66.7945208,27.4027001 66.3459408,26.49784 L60.9134799,14.492 Z M58.1553407,22.8742199 L60.6992008,16.8536998 L63.1709009,22.8742199 L58.1553407,22.8742199 Z M74.2949799,28 L74.2907999,27.78 L73.9973199,27.78 C73.1888199,27.78 72.5301399,27.2579401 72.5041801,26.6058601 L72.5041801,16.17258 C72.5431201,15.5301801 73.1963002,15.0191201 73.9962202,15.0191201 L74.2925602,15.0191201 L74.2925602,14.7991201 L69.3086804,14.7991201 L69.3128604,15.0191201 L69.6063404,15.0191201 C70.4251804,15.0191201 71.0860602,15.55108 71.1027801,16.21174 L71.1027801,26.5886998 C71.0860602,27.2486998 70.4256201,27.7799997 69.6074401,27.7799997 L69.3139602,27.7799997 L69.3097801,27.9999997 L74.2949799,28 Z M87.7063999,14.7995599 L87.7094799,15.0195599 L88.07534,15.0195599 C88.72676,15.0195599 89.2589401,15.5055398 89.2985402,16.1186797 L89.2985402,25.2416396 L77.8820803,14.4816596 L77.6458002,14.4706596 C77.6458002,14.4706596 77.8565602,15.7171797 77.8565602,17.2191198 L77.8565602,26.6315997 C77.8435803,27.2682798 77.3008404,27.7810997 76.6316004,27.7810997 L76.2653005,27.7810997 L76.2622206,28.0010997 L80.4208805,28.0010997 L80.4182406,27.7810997 L80.0519408,27.7810997 C79.3827008,27.7810997 78.8395208,27.2682798 78.8272008,26.6315997 L78.8272008,17.4518799 L90.2691807,28.30866 L90.4786208,28.30866 C90.4786208,28.30866 90.2698407,26.9193601 90.2698407,25.5019003 L90.2698407,16.1206603 C90.3079006,15.5066402 90.8405208,15.0197801 91.4926007,15.0197801 L91.8584608,15.0197801 L91.8615408,14.7997801 L87.7063999,14.7995599 Z M96.8403601,14.8 L93.84,14.8 L93.8441801,15.02 L94.1502001,15.02 C94.8742202,15.02 95.4169602,15.5163199 95.43676,16.1716998 L95.43676,26.6131198 C95.4094799,27.2621198 94.8693799,27.7808799 94.1506399,27.7808799 L93.8446198,27.7808799 L93.84066,28.0008799 L98.43624,28.0008799 L98.4322801,27.7808799 L98.12626,27.7808799 C97.4024602,27.7808799 96.8581801,27.2533199 96.84058,26.5966198 L96.84058,21.7304398 L100.70796,21.7304398 C101.28546,21.7647597 101.55078,22.1686797 101.55078,22.6627999 L101.55078,22.9421998 L101.79344,22.9446198 L101.79344,19.8544997 L101.55078,19.8569197 L101.55078,20.1363196 C101.55078,20.6447396 101.26962,21.0576797 100.65626,21.0704398 L96.8403598,21.0704398 L96.8403598,15.4734197 L101.47268,15.4734197 C102.14214,15.4866198 102.577519,15.9873397 102.577519,16.6042195 L102.577519,16.9423594 L102.820179,16.9452195 L102.820179,14.4556995 C102.432319,14.6046396 101.227379,14.7944997 100.331099,14.8006596 L96.8403601,14.8 Z M112.3299,14.492 C108.22536,14.492 104.906,17.3115201 104.906,21.4 C104.906,25.4884799 108.22536,28.308 112.3299,28.308 C116.43378,28.308 119.75314,25.4884799 119.75314,21.4 C119.75314,17.3115201 116.43378,14.492 112.3299,14.492 L112.3299,14.492 Z M112.3299,27.64976 C109.09348,27.64976 106.53598,25.1199799 106.53598,21.4002199 C106.53598,17.68024 109.09348,15.15024 112.3299,15.15024 C115.56566,15.15024 118.12382,17.68024 118.12382,21.4002199 C118.12382,25.1199799 115.56566,27.64976 112.3299,27.64976 L112.3299,27.64976 Z M121.714,14.8 L121.71796,15.02 L122.01496,15.02 C122.71478,15.02 123.24234,15.5127999 123.26478,16.1648799 L123.26478,26.6179598 C123.23618,27.2647597 122.71082,27.7808799 122.01518,27.7808799 L121.71818,27.7808799 L121.71422,28.0008799 L126.21344,28.0008799 L126.20948,27.7808799 L125.91182,27.7808799 C125.20408,27.7808799 124.67564,27.24892 124.662,26.58826 L124.662,15.48508 C124.87122,15.49674 125.95538,15.4419598 127.19178,15.5044398 C128.9619,15.5939799 130.07136,16.5621998 130.11778,18.2104398 C130.13142,18.6926797 130.06916,19.1562199 129.964,19.46466 C129.33304,21.3139799 127.94682,21.3258598 126.73,21.3566596 C126.0106,21.3749197 125.46764,21.3656797 125.4683,21.3656797 L125.4683,21.5691797 C126.33884,21.5691797 127.10202,22.3041998 127.69778,23.0506596 C127.87004,23.2664796 129.604741,25.7654595 129.853561,26.0646596 C130.5437,26.8938397 131.504221,28.0006596 133.938081,28.0006596 L134.631081,28.0006596 L134.631081,27.7799997 C133.410961,27.7696596 132.794961,27.1125197 131.899561,26.1086596 C130.98986,25.0889595 129.97104,23.7099997 129.974561,23.7099997 C129.503101,23.0418598 128.759721,22.2036596 128.279681,21.9858598 C130.254181,21.7878598 131.700461,20.2289398 131.700461,18.3631198 C131.700461,16.1406797 130.001181,14.8004398 127.227641,14.8004398 L121.714,14.8 Z M145.65858,24.8441001 L145.4201,24.8441001 C144.7953,26.26816 144.04268,27.2988601 141.92914,27.32724 L138.489,27.32724 L138.489,21.7302199 L142.29874,21.7302199 C142.87338,21.7645398 143.13914,22.1684598 143.13914,22.66258 L143.13914,22.9419799 L143.3785,22.9443999 L143.3785,19.8542798 L143.13914,19.8566998 L143.13914,20.1360997 C143.13914,20.6445197 142.85754,21.0574598 142.24748,21.0702199 L138.489,21.0702199 L138.489,15.4731998 L143.0507,15.4731998 C143.72038,15.4863999 144.15378,15.9871198 144.15378,16.6039997 L144.15378,16.9421396 L144.39314,16.9449997 L144.39314,14.4554796 C144.01012,14.6044197 142.82036,14.7942798 141.9353,14.8004398 L135.50844,14.8004398 L135.5124,15.0204398 L135.81446,15.0204398 C136.52946,15.0204398 137.08518,15.5167597 137.08518,16.1725797 L137.08518,26.6133397 C137.05856,27.2625596 136.52484,27.7813196 135.81512,27.7813196 L135.51306,27.7813196 L135.5091,28.0013196 L144.4466,28.0013196 L145.65858,24.8441001 Z M147.27844,17 C148.65652,16.2225201 149.00126,13.4258802 148.9643,12.2920003 L147.4243,12.6000003 C147.54332,14.1987403 147.48898,14.9559803 147.08,16.8847202 L147.27844,17 Z M153.81794,17.5101801 C153.12472,16.868 152.93222,16.0553199 152.93222,15.4817798 C152.93222,14.1410997 154.01704,12.9517798 155.638,12.9517798 C157.00882,12.9517798 158.1185,13.8097798 158.11322,15.2171198 L158.32508,15.2171198 L158.32508,12.7788598 L158.32508,12.5177199 L157.45344,12.5177199 C156.86912,12.39034 156.14422,12.292 155.56672,12.292 C153.05872,12.292 151.70022,14.1556201 151.70022,16.01 C151.70022,16.8616201 152.00272,17.924 152.89262,18.73624 L157.10672,22.6500398 C157.6565,23.1602199 157.97,23.8404598 157.97,24.7002199 C157.97,26.4584598 156.628,27.5591198 155.022,27.6484398 C153.064,27.7571198 151.62872,26.3064398 151.84982,24.0393397 L151.65644,24.0393397 C151.321381,25.0258196 151.238221,26.4272195 151.40212,27.1063594 C152.266721,28.0004394 154.048721,28.3084394 155.126721,28.3084394 C157.656721,28.3084394 159.246221,26.6278594 159.246221,24.1944394 C159.246221,23.3058594 159.020721,22.3244394 158.141161,21.5124193 L153.81794,17.5101801 Z" id="Rainfore'S" fill="#FFFFFF"></path>
            <path d="M71.488,59.256 L75.488,59.256 L75.488,56.792 L70.224,56.792 C69.7973312,56.792 69.4400014,56.8506661 69.152,56.968 L68.56,56.28 C68.9546686,56.3333336 69.3973309,56.36 69.888,56.36 L81.216,56.36 L82.192,55.192 L83.312,56.52 C83.386667,56.6160005 83.424,56.6853331 83.424,56.728 C83.424,56.7706669 83.3440008,56.792 83.184,56.792 L76.656,56.792 L76.656,59.256 L80.288,59.256 L80.96,58.44 L82.192,59.368 C82.266667,59.442667 82.304,59.5066664 82.304,59.56 C82.304,59.6133336 82.266667,59.6666664 82.192,59.72 L81.824,59.944 L81.824,67.128 C81.824,67.661336 81.7520007,68.0373322 81.608,68.256 C81.4639993,68.4746678 81.1866687,68.7093321 80.776,68.96 C80.3653313,69.2106679 80.0986673,69.336 79.976,69.336 C79.8533327,69.336 79.7813334,69.2453342 79.76,69.064 C79.7386666,68.7119982 79.6213344,68.4533342 79.408,68.288 C79.1946656,68.1226658 78.7306702,67.9546675 78.016,67.784 L78.016,67.416 C78.9226712,67.5440006 79.538665,67.608 79.864,67.608 C80.189335,67.608 80.3973329,67.5653338 80.488,67.48 C80.5786671,67.3946662 80.624,67.2453344 80.624,67.032 L80.624,59.72 L76.656,59.72 L76.656,65.288 C76.656,66.3013384 76.6639999,67.045331 76.68,67.52 C76.6960001,67.994669 76.704,68.2479998 76.704,68.28 C76.704,68.4613342 76.5306684,68.647999 76.184,68.84 C75.8373316,69.032001 75.6213338,69.128 75.536,69.128 C75.4079994,69.128 75.344,69.0533341 75.344,68.904 C75.344,68.7546659 75.3493333,68.6160006 75.36,68.488 C75.4453338,67.7093294 75.488,66.5306746 75.488,64.952 L75.488,59.72 L71.28,59.72 L71.28,68.376 C71.28,68.5146674 71.2453337,68.621333 71.176,68.696 C71.1066663,68.770667 70.9466679,68.8613328 70.696,68.968 C70.4453321,69.0746672 70.2800004,69.128 70.2,69.128 C70.1199996,69.128 70.0666668,69.0933337 70.04,69.024 C70.0133332,68.9546663 70.0106666,68.8133344 70.032,68.6 C70.1280005,67.7466624 70.176,66.5626742 70.176,65.048 L70.176,60.264 C70.176,59.5706632 70.1600002,58.9253363 70.128,58.328 L71.488,59.256 Z M72.336,60.84 C73.6800067,61.3200024 74.352,61.8586637 74.352,62.456 C74.352,62.648001 74.2906673,62.8079994 74.168,62.936 C74.0453327,63.0640006 73.917334,63.128 73.784,63.128 C73.650666,63.128 73.5386671,63.0826671 73.448,62.992 C73.3573329,62.9013329 73.2906669,62.7866674 73.248,62.648 C73.1199994,62.1573309 72.7733362,61.6346694 72.208,61.08 L72.336,60.84 Z M77.296,60.904 C77.9573366,61.1280011 78.458665,61.3546655 78.8,61.584 C79.141335,61.8133345 79.312,62.0346656 79.312,62.248 C79.312,62.6000018 79.2426674,62.8319994 79.104,62.944 C78.9653326,63.0560006 78.8480005,63.112 78.752,63.112 C78.6559995,63.112 78.5626671,63.0640005 78.472,62.968 C78.3813329,62.8719995 78.3200002,62.7466674 78.288,62.592 C78.2559998,62.4373326 78.1413343,62.2133348 77.944,61.92 C77.7466657,61.6266652 77.4880016,61.3733344 77.168,61.16 L77.296,60.904 Z M72.512,63.528 C73.7813397,64.1893366 74.416,64.8026638 74.416,65.368 C74.416,65.6453347 74.3306675,65.879999 74.16,66.072 C73.9893325,66.264001 73.7973344,66.36 73.584,66.36 C73.4879995,66.36 73.4080003,66.3093338 73.344,66.208 C73.2799997,66.1066662 73.248,65.9493344 73.248,65.736 C73.248,65.5226656 73.1573342,65.1813357 72.976,64.712 C72.7946658,64.2426643 72.5866678,63.9226675 72.352,63.752 L72.512,63.528 Z M77.536,63.656 C78.1866699,63.9440014 78.6666651,64.2373318 78.976,64.536 C79.2853349,64.8346682 79.44,65.117332 79.44,65.384 C79.44,65.650668 79.3653341,65.8666658 79.216,66.032 C79.0666659,66.1973342 78.9173341,66.28 78.768,66.28 C78.6186659,66.28 78.4933338,66.2160006 78.392,66.088 C78.2906662,65.9599994 78.24,65.8026676 78.24,65.616 C78.24,65.4293324 78.1493342,65.1413353 77.968,64.752 C77.7866658,64.3626647 77.5680013,64.0826675 77.312,63.912 L77.536,63.656 Z M95.424,59.032 C95.7120014,60.5040074 96.2373295,61.8533272 97,63.08 C97.7626705,64.3066728 98.5759957,65.1546643 99.44,65.624 L99.424,65.848 C99.082665,65.8800002 98.8320008,65.9279997 98.672,65.992 C98.5119992,66.0560003 98.3760006,66.1466661 98.264,66.264 C98.1519994,66.3813339 98.0640003,66.44 98,66.44 C97.8293325,66.44 97.3866702,65.7920065 96.672,64.496 C95.9573298,63.1999935 95.4560014,61.6506757 95.168,59.848 L95.168,65.816 C95.168,66.8720053 95.1759999,67.6186645 95.192,68.056 C95.2080001,68.4933355 95.216,68.7573329 95.216,68.848 C95.216,68.9386671 95.1920002,69.0239996 95.144,69.104 C95.0959998,69.1840004 94.9333347,69.2826661 94.656,69.4 C94.3786653,69.5173339 94.1893338,69.576 94.088,69.576 C93.9866662,69.576 93.936,69.480001 93.936,69.288 L94.016,67.8 C94.0480002,67.1706635 94.064,66.3866714 94.064,65.448 L94.064,59.384 C93.605331,61.2400093 93.0853362,62.7119946 92.504,63.8 C91.9226638,64.8880054 91.0346726,65.9386616 89.84,66.952 L89.696,66.824 C90.5386709,65.8213283 91.2373306,64.7173394 91.792,63.512 C92.3466694,62.3066606 92.8319979,60.8133422 93.248,59.032 C92.7573309,59.0426667 92.4053344,59.0959995 92.192,59.192 L91.632,58.504 C92.0266686,58.5680003 92.4639976,58.6 92.944,58.6 L94.064,58.6 L94.064,57.208 C94.064,56.141328 94.0480002,55.2773366 94.016,54.616 L95.552,55.304 C95.6693339,55.3573336 95.728,55.4159997 95.728,55.48 C95.728,55.5440003 95.6693339,55.6079997 95.552,55.672 L95.168,55.896 L95.168,58.6 L97.12,58.6 L97.888,57.576 L98.896,58.696 C98.9813338,58.7813338 99.024,58.8586663 99.024,58.928 C99.024,58.9973337 98.9493341,59.032 98.8,59.032 L95.424,59.032 Z M89.088,60.904 C90.5706741,61.3946691 91.312,61.9653301 91.312,62.616 C91.312,62.8613346 91.2533339,63.087999 91.136,63.296 C91.0186661,63.504001 90.9013339,63.608 90.784,63.608 C90.5599989,63.608 90.410667,63.4720014 90.336,63.2 C90.261333,62.9279986 90.1066678,62.5973353 89.872,62.208 C89.6373322,61.8186647 89.3760014,61.490668 89.088,61.224 L89.088,65.848 C89.088,66.8933386 89.0959999,67.6373311 89.112,68.08 C89.1280001,68.5226689 89.136,68.7599998 89.136,68.792 C89.136,69.0480013 88.9760016,69.2479993 88.656,69.392 C88.3359984,69.5360007 88.1226672,69.608 88.016,69.608 C87.9093328,69.608 87.856,69.4960011 87.856,69.272 C87.9520005,67.2986568 88,66.0400027 88,65.496 L88,61.416 C87.2213294,63.2400091 86.1493402,64.9199923 84.784,66.456 L84.56,66.28 C86.0320074,64.2319898 87.1199965,61.8426803 87.824,59.112 L86.32,59.112 C85.8933312,59.112 85.5413347,59.1653328 85.264,59.272 L84.704,58.6 C85.0986686,58.6533336 85.5359976,58.68 86.016,58.68 L88,58.68 L88,57.384 C88,56.2319942 87.9786669,55.3680029 87.936,54.792 L89.504,55.48 C89.6213339,55.5333336 89.68,55.5866664 89.68,55.64 C89.68,55.6933336 89.6213339,55.757333 89.504,55.832 L89.088,56.072 L89.088,58.68 L89.776,58.68 L90.576,57.72 L91.472,58.776 C91.5360003,58.8613338 91.568,58.9386663 91.568,59.008 C91.568,59.0773337 91.4986674,59.112 91.36,59.112 L89.088,59.112 L89.088,60.904 Z M108.544,67.56 L112.944,67.56 L114.016,66.28 L115.2,67.672 C115.306667,67.7786672 115.36,67.861333 115.36,67.92 C115.36,67.978667 115.280001,68.008 115.12,68.008 L102.336,68.008 C101.919998,68.008 101.557335,68.0666661 101.248,68.184 L100.64,67.48 C101.045335,67.5333336 101.487998,67.56 101.968,67.56 L107.376,67.56 L107.376,57.304 L103.488,57.304 C103.061331,57.304 102.698668,57.3573328 102.4,57.464 L101.792,56.76 C102.197335,56.8240003 102.639998,56.856 103.12,56.856 L112.016,56.856 L112.976,55.704 L114.112,57.016 C114.197334,57.1120005 114.24,57.1839998 114.24,57.232 C114.24,57.2800002 114.160001,57.304 114,57.304 L108.544,57.304 L108.544,67.56 Z M121.968,68.136 L121.968,57.944 C121.968,56.8986614 121.946667,56.0453366 121.904,55.384 L123.536,56.008 C123.664001,56.0506669 123.728,56.101333 123.728,56.16 C123.728,56.218667 123.664001,56.2799997 123.536,56.344 L123.104,56.584 L123.104,68.136 L125.056,68.136 L125.056,57.784 C125.056,56.8026618 125.04,55.9440037 125.008,55.208 L126.576,55.992 C126.704001,56.0560003 126.768,56.1199997 126.768,56.184 C126.768,56.2480003 126.714667,56.3066664 126.608,56.36 L126.192,56.6 L126.192,65.688 C127.674674,63.0853203 128.570665,60.6746778 128.88,58.456 L130.288,59.32 C130.437334,59.4160005 130.512,59.493333 130.512,59.552 C130.512,59.610667 130.429334,59.6879995 130.264,59.784 C130.098666,59.8800005 129.973334,59.9919994 129.888,60.12 C129.802666,60.2480006 129.613335,60.615997 129.32,61.224 C129.026665,61.832003 128.568003,62.669328 127.944,63.736 C127.319997,64.802672 126.736003,65.6666634 126.192,66.328 L126.192,68.136 L128.976,68.136 L130.032,66.888 L131.248,68.28 C131.312,68.3653338 131.344,68.4346664 131.344,68.488 C131.344,68.5413336 131.274667,68.568 131.136,68.568 L118.288,68.568 C117.882665,68.568 117.530668,68.6159995 117.232,68.712 L116.64,68.04 C117.034669,68.1040003 117.461331,68.136 117.92,68.136 L121.968,68.136 Z M118.496,59.032 C119.285337,60.1093387 119.861332,61.0986622 120.224,62 C120.586668,62.9013378 120.768,63.8106621 120.768,64.728 C120.768,64.994668 120.685334,65.231999 120.52,65.44 C120.354666,65.648001 120.178668,65.752 119.992,65.752 C119.805332,65.752 119.666667,65.6986672 119.576,65.592 C119.485333,65.4853328 119.44,65.3466675 119.44,65.176 L119.456,64.552 C119.456,62.8133246 119.050671,61.0213426 118.24,59.176 L118.496,59.032 Z" id="雨林工业" fill="#FFFFFF"></path>
        </g>
    </g>
</svg>